<svg width="74" height="74" fill="none" xmlns="http://www.w3.org/2000/svg"><g filter="url(#a)"><circle cx="37" cy="33" r="26" fill="#5ECE7B"/><path d="M48.4736 26.8484c-.455-.5559-1.1627-.8938-1.8951-.8938H31.1907l-.4797-1.7877c-.2784-1.0392-1.2378-1.7641-2.3502-1.7641h-2.5771c-.4293 0-.7837.3379-.7837.7495 0 .4105.3534.7494.7837.7494h2.5771c.379 0 .7077.2416.8084.6041l3.0825 11.7436c.2783 1.0392 1.2377 1.7641 2.3501 1.7641h10.0815c1.1114 0 2.0975-.7249 2.3502-1.7641l1.8951-7.4424c.1767-.6777.0257-1.4026-.455-1.9585v-.0001Zm-1.0857 1.6187-1.8952 7.4424c-.1006.3625-.4293.6041-.8083.6041H34.6018c-.379 0-.7077-.2416-.8083-.6041l-2.1982-8.4323h14.9843c.2527 0 .5054.1208.6574.3143.151.1925.226.4342.151.6758l-.0001-.0002ZM35.1332 38.9778c-1.44 0-2.6273 1.1354-2.6273 2.5124s1.1874 2.5125 2.6273 2.5125c1.4401.0009 2.6274-1.1345 2.6274-2.5117 0-1.3773-1.1874-2.5135-2.6274-2.5135v.0003Zm0 3.5036c-.5813 0-1.0364-.4351-1.0364-.9911 0-.5559.4551-.991 1.0364-.991.5814 0 1.0364.4351 1.0364.991-.0009.5324-.4806.9911-1.0364.9911ZM43.8251 38.978c-1.44 0-2.6273 1.1355-2.6273 2.5125 0 1.377 1.1874 2.5124 2.6273 2.5124 1.44 0 2.6274-1.1354 2.6274-2.5124-.0246-1.3762-1.1874-2.5125-2.6274-2.5125Zm0 3.5036c-.5813 0-1.0364-.4351-1.0364-.991 0-.556.4551-.9911 1.0364-.9911.5814 0 1.0364.4351 1.0364.9911 0 .5323-.4806.991-1.0364.991Z" fill="#fff"/></g><defs><filter id="a" x="0" y="0" width="74" height="74" filterUnits="userSpaceOnUse" color-interpolation-filters="sRGB"><feFlood flood-opacity="0" result="BackgroundImageFix"/><feColorMatrix in="SourceAlpha" values="0 0 0 0 0 0 0 0 0 0 0 0 0 0 0 0 0 0 127 0" result="hardAlpha"/><feOffset dy="4"/><feGaussianBlur stdDeviation="5.5"/><feColorMatrix values="0 0 0 0 0.113725 0 0 0 0 0.121569 0 0 0 0 0.133333 0 0 0 0.1 0"/><feBlend in2="BackgroundImageFix" result="effect1_dropShadow_150_263"/><feBlend in="SourceGraphic" in2="effect1_dropShadow_150_263" result="shape"/></filter></defs></svg>