<svg width="20" height="20" fill="none" xmlns="http://www.w3.org/2000/svg"><path d="M19.5613 4.87359c-.3791-.46328-.9689-.74486-1.5792-.74486H5.15889l-.39975-1.48972c-.23196-.86599-1.03145-1.47006-1.95845-1.47006H.653099C.295301 1.16895 0 1.45052 0 1.79347c0 .34215.294459.62453.653099.62453H2.80069c.31585 0 .58976.20136.67365.50339l2.56872 9.78631c.23196.866 1.03145 1.4701 1.95846 1.4701h8.40128c.9261 0 1.7479-.6041 1.9584-1.4701l1.5793-6.20195c.1472-.56475.0214-1.16882-.3792-1.6321v-.00006Zm-.9047 1.34893-1.5793 6.20198c-.0839.302-.3578.5034-.6737.5034H8.00154c-.31585 0-.58976-.2014-.67365-.5034L5.49611 5.39756H17.983c.2106 0 .4212.10068.5478.26192.1259.16046.1884.36182.1259.56318l-.0001-.00014ZM8.44437 14.9814c-1.20007 0-2.18949.9462-2.18949 2.0937s.98951 2.0937 2.18949 2.0937c1.20008.0008 2.18953-.9454 2.18953-2.0931 0-1.1477-.98954-2.0945-2.18953-2.0945v.0002Zm0 2.9197c-.48447 0-.86366-.3626-.86366-.8259s.37919-.8259.86366-.8259c.48448 0 .86367.3626.86367.8259-.00082.4436-.40056.8259-.86367.8259ZM15.6875 14.9814c-1.2 0-2.1895.9463-2.1895 2.0938 0 1.1474.9896 2.0937 2.1895 2.0937 1.2 0 2.1895-.9463 2.1895-2.0937-.0205-1.1468-.9895-2.0938-2.1895-2.0938Zm0 2.9197c-.4844 0-.8636-.3626-.8636-.8259 0-.4632.3792-.8259.8636-.8259.4845 0 .8637.3627.8637.8259 0 .4436-.4006.8259-.8637.8259Z" fill="#43464E"/></svg>