<svg aria-hidden="true" style="position:absolute;width:0;height:0" xmlns="http://www.w3.org/2000/svg" overflow="hidden"><defs><symbol id="icon-emptyCart" viewBox="0 0 32 32"><path fill="var(--color1, #43464e)" d="M31.298 7.798c-.607-.741-1.55-1.192-2.527-1.192H8.254l-.64-2.384C7.243 2.836 5.964 1.87 4.48 1.87H1.044c-.572 0-1.045.45-1.045.999 0 .547.471.999 1.045.999H4.48c.505 0 .944.322 1.078.805l4.11 15.658c.371 1.386 1.65 2.352 3.134 2.352h13.442c1.482 0 2.797-.967 3.133-2.352l2.527-9.923c.236-.904.034-1.87-.607-2.611zm-1.447 2.158-2.527 9.923c-.134.483-.572.805-1.078.805H12.803c-.505 0-.944-.322-1.078-.805L8.794 8.636h19.979c.337 0 .674.161.876.419.201.257.301.579.201.901zM13.511 23.97c-1.92 0-3.503 1.514-3.503 3.35s1.583 3.35 3.503 3.35c1.92.001 3.503-1.513 3.503-3.349s-1.583-3.351-3.503-3.351zm0 4.672c-.775 0-1.382-.58-1.382-1.321S12.736 26 13.511 26c.775 0 1.382.58 1.382 1.321-.001.71-.641 1.321-1.382 1.321zM25.1 23.97c-1.92 0-3.503 1.514-3.503 3.35s1.583 3.35 3.503 3.35c1.92 0 3.503-1.514 3.503-3.35-.033-1.835-1.583-3.35-3.503-3.35zm0 4.672c-.775 0-1.382-.58-1.382-1.321S24.325 26 25.1 26c.775 0 1.382.58 1.382 1.321 0 .71-.641 1.321-1.382 1.321z"/></symbol><symbol id="icon-logo" viewBox="0 0 32 32"><path fill="var(--color2, #1dcf65)" d="M26.554 22.372c.021.248-.173.462-.42.462H5.829c-.246 0-.44-.213-.42-.461L6.864 4.614c.018-.221.201-.39.42-.39h17.334c.219 0 .401.169.419.389l1.516 17.759z"/><path fill="var(--color3, #000)" d="M28.175 27.006c.025.31-.217.576-.524.576H4.367c-.307 0-.549-.264-.525-.574L5.514 5.735c.022-.277.25-.49.525-.49H25.91c.274 0 .502.212.525.488l1.741 21.273z"/><path fill="var(--color4, #fff)" d="M15.55 20.835c-3.031 0-5.496-2.991-5.496-6.667 0-.191.154-.347.343-.347s.343.155.343.347c0 3.294 2.158 5.974 4.81 5.974s4.81-2.68 4.81-5.974c0-.191.154-.347.343-.347s.343.155.343.347c0 3.676-2.466 6.667-5.496 6.667z"/><path fill="var(--color4, #fff)" d="M18.933 14.075c-.088 0-.176-.034-.243-.102-.134-.135-.134-.355 0-.49l1.779-1.797c.064-.065.152-.102.243-.102s.178.036.243.102l1.761 1.78c.134.135.134.355 0 .49s-.351.135-.485 0l-1.519-1.534-1.536 1.552c-.067.068-.155.102-.243.102z"/></symbol></defs></svg>